<svg width="147" height="44" viewBox="0 0 147 44" fill="none" xmlns="http://www.w3.org/2000/svg">
<path fill-rule="evenodd" clip-rule="evenodd" d="M21.7991 3.59696C21.5621 3.83395 21.5533 3.88534 21.5756 4.92128C21.5882 5.51399 21.558 6.03945 21.5085 6.08878C21.4589 6.13812 20.9338 6.24912 20.3416 6.33526C17.7449 6.7133 15.5618 7.47496 13.2448 8.81142C11.5719 9.77639 10.665 10.4553 9.29502 11.7686C7.87868 13.1263 6.94376 14.3102 5.73945 16.2714C5.39362 16.8348 4.72857 18.153 4.72857 18.2755C4.72857 18.3006 4.62011 18.5584 4.48757 18.8482C3.74197 20.4783 3.07868 23.488 3.0547 25.3498C3.03816 26.6374 3.08955 26.5821 1.80096 26.6998C0.824923 26.7891 0.670261 26.8285 0.507963 27.0288C0.252869 27.3438 0.277537 27.687 0.57668 27.9862C0.827565 28.2371 0.83941 28.2387 1.92263 28.1752C2.52376 28.14 4.33702 28.0463 5.95216 27.967C7.5673 27.8877 9.65965 27.7791 10.6018 27.7257C13.3074 27.5724 13.9921 27.5371 15.3493 27.4814C16.684 27.4266 19.1378 27.2965 21.8589 27.1363C22.7472 27.084 24.1157 27.0181 24.9 26.9898C25.6843 26.9615 26.6754 26.9187 27.1025 26.8948C27.5296 26.8709 28.9361 26.8048 30.2282 26.7478C31.5203 26.6909 33.2823 26.6026 34.1437 26.5516C35.0051 26.5006 36.2165 26.4337 36.8356 26.4028C37.4548 26.3718 38.2256 26.3276 38.5486 26.3045C38.8717 26.2814 39.6866 26.2369 40.3596 26.2056C44.748 26.0018 45.9307 25.9024 46.1319 25.7203C46.3949 25.4822 46.4013 24.8819 46.1432 24.6483C45.9851 24.5052 45.7859 24.4826 44.8718 24.5036C44.2755 24.5174 43.7555 24.4965 43.7161 24.4571C43.6768 24.4177 43.5706 23.8923 43.4801 23.2895C43.2966 22.0659 43.2607 21.8928 43.0592 21.2637C42.9816 21.0214 42.8667 20.625 42.804 20.3827C42.7412 20.1404 42.65 19.8657 42.6015 19.7723C42.5528 19.6788 42.5131 19.5524 42.5131 19.4916C42.5131 19.2622 41.5818 17.1867 41.0947 16.3304C40.4499 15.1971 39.8825 14.3245 39.5899 14.0166C39.4639 13.8838 39.2445 13.6211 39.1024 13.4327C38.5008 12.6347 37.2768 11.4117 36.2767 10.6091C35.4996 9.98538 33.3542 8.57287 32.7243 8.2702C29.9457 6.93502 27.3482 6.2502 24.5671 6.11981C23.6894 6.0786 23.2698 6.01977 23.1745 5.92453C23.0922 5.8423 23.0349 5.56655 23.0299 5.22992C23.0111 3.96257 22.9832 3.76082 22.7981 3.55634C22.5416 3.27295 22.1053 3.29067 21.7991 3.59696ZM14.0258 10.6184C14.0246 10.6858 13.8374 11.0334 13.6098 11.391C12.9851 12.3724 11.7768 14.6416 11.7766 14.8338C11.7765 14.8777 11.6663 15.1543 11.5317 15.4486C11.3971 15.7428 11.287 16.0395 11.287 16.1079C11.287 16.1763 11.2461 16.2742 11.1961 16.3253C11.0641 16.4601 10.4461 18.9037 10.2689 19.9911C10.1168 20.924 10.0613 21.4796 9.96584 23.0256C9.88107 24.3974 9.63018 24.5874 7.8689 24.6143C6.50268 24.6351 6.25346 24.5303 6.0063 23.8308C5.82276 23.3114 5.94952 22.6268 6.59029 20.6763C7.11585 19.0768 7.22871 18.7949 7.7852 17.6908C8.6702 15.935 9.44126 14.76 10.6117 13.3837C12.1956 11.5212 14.0358 10.0307 14.0258 10.6184ZM27.5853 30.2417C25.9648 30.2809 21.6496 30.4782 19.4606 30.6133C17.6763 30.7234 16.8814 30.7677 14.2236 30.9058C12.6893 30.9853 10.9053 31.0934 10.2592 31.1459C9.61315 31.1983 7.82915 31.2899 6.29477 31.3493C4.76039 31.4088 3.44419 31.4772 3.36999 31.5014C3.23119 31.5466 3.24127 31.7064 3.44703 32.7165C3.59905 33.4633 4.03191 34.8915 4.24099 35.3364C4.35033 35.569 4.51048 35.9446 4.59682 36.1712C5.0378 37.3277 5.98143 38.9638 6.83139 40.0456C7.0905 40.3755 7.30976 40.6454 7.31867 40.6454C7.32758 40.6454 7.55233 40.5407 7.81819 40.4129C9.17511 39.7603 9.81323 39.4758 10.2427 39.3321C11.6326 38.8673 13.9558 38.5665 15.5406 38.6463C17.0146 38.7204 24.7422 38.7182 25.8233 38.6432C26.9541 38.5649 27.6191 38.431 28.2705 38.151C28.4858 38.0584 29.1466 37.7847 29.7388 37.5429C30.331 37.3011 30.8596 37.0684 30.9134 37.0256C30.9673 36.9828 31.5268 36.7243 32.1568 36.4511C32.7867 36.1779 33.3814 35.9108 33.4783 35.8577C33.6888 35.742 34.4536 35.3951 36.2972 34.579C37.051 34.2453 37.8879 33.8684 38.1571 33.7415C38.4263 33.6144 38.9108 33.3932 39.2339 33.2498C39.8794 32.9632 40.6706 32.5972 41.8954 32.0184C42.3364 31.8101 42.7246 31.6397 42.7582 31.6397C42.8976 31.6397 43.8704 31.1527 43.9328 31.0518C43.9701 30.9915 43.9191 30.8508 43.8197 30.7391C43.3785 30.2437 42.5186 30.1435 41.3807 30.4551C40.3999 30.7237 39.0696 31.1349 38.8423 31.2399C38.7346 31.2895 38.2941 31.4433 37.8634 31.5814C36.6667 31.9653 34.0379 32.8847 33.6795 33.0447C33.5041 33.123 33.1404 33.2614 32.8712 33.3524C32.602 33.4432 31.9413 33.6709 31.4029 33.8583C30.329 34.2323 27.0259 34.939 25.9129 35.0332C25.0525 35.1059 24.7474 35.037 24.5422 34.7239C24.1874 34.1823 24.4532 33.434 25.0871 33.1895C25.4272 33.0582 26.8271 32.8184 27.2654 32.8161C27.6294 32.8144 29.8645 32.4575 31.253 32.1793C32.2339 31.9829 32.9655 31.6054 33.1601 31.1953C33.3504 30.7944 33.3495 30.7117 33.1513 30.4093L32.9911 30.1647L30.7286 30.1925C29.4844 30.2078 28.0698 30.2299 27.5853 30.2417Z" fill="#EF4444"/>
<path d="M71.7208 6.45455V21H69.377L62.5233 11.0923H62.4026V21H59.7677V6.45455H62.1256L68.9722 16.3693H69.1001V6.45455H71.7208ZM78.7368 21.2131C77.6714 21.2131 76.7481 20.9787 75.9669 20.5099C75.1856 20.0412 74.5796 19.3854 74.1487 18.5426C73.7226 17.6998 73.5095 16.715 73.5095 15.5881C73.5095 14.4612 73.7226 13.474 74.1487 12.6264C74.5796 11.7789 75.1856 11.1207 75.9669 10.652C76.7481 10.1832 77.6714 9.94886 78.7368 9.94886C79.8021 9.94886 80.7254 10.1832 81.5067 10.652C82.2879 11.1207 82.8916 11.7789 83.3177 12.6264C83.7486 13.474 83.964 14.4612 83.964 15.5881C83.964 16.715 83.7486 17.6998 83.3177 18.5426C82.8916 19.3854 82.2879 20.0412 81.5067 20.5099C80.7254 20.9787 79.8021 21.2131 78.7368 21.2131ZM78.751 19.1534C79.3286 19.1534 79.8116 18.9948 80.1998 18.6776C80.5881 18.3556 80.8769 17.9247 81.0663 17.3849C81.2604 16.8452 81.3575 16.2438 81.3575 15.581C81.3575 14.9134 81.2604 14.3097 81.0663 13.7699C80.8769 13.2254 80.5881 12.7921 80.1998 12.4702C79.8116 12.1482 79.3286 11.9872 78.751 11.9872C78.1591 11.9872 77.6667 12.1482 77.2737 12.4702C76.8854 12.7921 76.5943 13.2254 76.4001 13.7699C76.2107 14.3097 76.116 14.9134 76.116 15.581C76.116 16.2438 76.2107 16.8452 76.4001 17.3849C76.5943 17.9247 76.8854 18.3556 77.2737 18.6776C77.6667 18.9948 78.1591 19.1534 78.751 19.1534ZM85.6462 21V10.0909H88.1036V11.9446H88.2314C88.4587 11.3196 88.8351 10.8319 89.3607 10.4815C89.8863 10.1264 90.5136 9.94886 91.2428 9.94886C91.9814 9.94886 92.6041 10.1288 93.1107 10.4886C93.6221 10.8437 93.9819 11.3291 94.1903 11.9446H94.3039C94.5454 11.3385 94.9526 10.8556 95.5255 10.4957C96.1031 10.1312 96.7873 9.94886 97.578 9.94886C98.5818 9.94886 99.401 10.2661 100.035 10.9006C100.67 11.535 100.987 12.4607 100.987 13.6776V21H98.409V14.0753C98.409 13.3982 98.2291 12.9034 97.8692 12.5909C97.5094 12.2737 97.069 12.1151 96.5482 12.1151C95.9279 12.1151 95.4426 12.3092 95.0922 12.6974C94.7466 13.081 94.5738 13.5805 94.5738 14.196V21H92.0525V13.9688C92.0525 13.4053 91.882 12.9555 91.5411 12.6193C91.2049 12.2831 90.7646 12.1151 90.2201 12.1151C89.8508 12.1151 89.5146 12.2098 89.2116 12.3991C88.9085 12.5838 88.6671 12.8466 88.4871 13.1875C88.3072 13.5237 88.2172 13.9167 88.2172 14.3665V21H85.6462Z" fill="#FAFAFA"/>
<path d="M115.162 6.45455V21H112.818L105.965 11.0923H105.844V21H103.209V6.45455H105.567L112.414 16.3693H112.541V6.45455H115.162ZM122.178 21.2131C121.113 21.2131 120.19 20.9787 119.408 20.5099C118.627 20.0412 118.021 19.3854 117.59 18.5426C117.164 17.6998 116.951 16.715 116.951 15.5881C116.951 14.4612 117.164 13.474 117.59 12.6264C118.021 11.7789 118.627 11.1207 119.408 10.652C120.19 10.1832 121.113 9.94886 122.178 9.94886C123.244 9.94886 124.167 10.1832 124.948 10.652C125.729 11.1207 126.333 11.7789 126.759 12.6264C127.19 13.474 127.405 14.4612 127.405 15.5881C127.405 16.715 127.19 17.6998 126.759 18.5426C126.333 19.3854 125.729 20.0412 124.948 20.5099C124.167 20.9787 123.244 21.2131 122.178 21.2131ZM122.192 19.1534C122.77 19.1534 123.253 18.9948 123.641 18.6776C124.03 18.3556 124.318 17.9247 124.508 17.3849C124.702 16.8452 124.799 16.2438 124.799 15.581C124.799 14.9134 124.702 14.3097 124.508 13.7699C124.318 13.2254 124.03 12.7921 123.641 12.4702C123.253 12.1482 122.77 11.9872 122.192 11.9872C121.601 11.9872 121.108 12.1482 120.715 12.4702C120.327 12.7921 120.036 13.2254 119.842 13.7699C119.652 14.3097 119.557 14.9134 119.557 15.581C119.557 16.2438 119.652 16.8452 119.842 17.3849C120.036 17.9247 120.327 18.3556 120.715 18.6776C121.108 18.9948 121.601 19.1534 122.192 19.1534ZM129.088 21V10.0909H131.545V11.9446H131.673C131.9 11.3196 132.277 10.8319 132.802 10.4815C133.328 10.1264 133.955 9.94886 134.684 9.94886C135.423 9.94886 136.045 10.1288 136.552 10.4886C137.063 10.8437 137.423 11.3291 137.632 11.9446H137.745C137.987 11.3385 138.394 10.8556 138.967 10.4957C139.545 10.1312 140.229 9.94886 141.019 9.94886C142.023 9.94886 142.842 10.2661 143.477 10.9006C144.111 11.535 144.429 12.4607 144.429 13.6776V21H141.85V14.0753C141.85 13.3982 141.67 12.9034 141.311 12.5909C140.951 12.2737 140.51 12.1151 139.99 12.1151C139.369 12.1151 138.884 12.3092 138.534 12.6974C138.188 13.081 138.015 13.5805 138.015 14.196V21H135.494V13.9688C135.494 13.4053 135.323 12.9555 134.983 12.6193C134.646 12.2831 134.206 12.1151 133.661 12.1151C133.292 12.1151 132.956 12.2098 132.653 12.3991C132.35 12.5838 132.108 12.8466 131.929 13.1875C131.749 13.5237 131.659 13.9167 131.659 14.3665V21H129.088Z" fill="#EF4444"/>
<path d="M64.5551 33.4545C64.504 33.0227 64.2966 32.6875 63.933 32.4489C63.5693 32.2102 63.1233 32.0909 62.5949 32.0909C62.2085 32.0909 61.8705 32.1534 61.5807 32.2784C61.2938 32.4034 61.0693 32.5753 60.9074 32.794C60.7483 33.0128 60.6688 33.2614 60.6688 33.5398C60.6688 33.7727 60.7242 33.973 60.835 34.1406C60.9486 34.3054 61.0935 34.4432 61.2696 34.554C61.4458 34.6619 61.6304 34.7514 61.8236 34.8224C62.0168 34.8906 62.1943 34.946 62.3563 34.9886L63.2426 35.2273C63.4699 35.2869 63.7227 35.3693 64.0012 35.4744C64.2824 35.5795 64.5509 35.723 64.8066 35.9048C65.0651 36.0838 65.2781 36.3139 65.4458 36.5952C65.6134 36.8764 65.6972 37.2216 65.6972 37.6307C65.6972 38.1023 65.5736 38.5284 65.3264 38.9091C65.0821 39.2898 64.7242 39.5923 64.2526 39.8168C63.7838 40.0412 63.2142 40.1534 62.5438 40.1534C61.9188 40.1534 61.3776 40.0526 60.9202 39.8509C60.4656 39.6491 60.1077 39.3679 59.8463 39.0071C59.5878 38.6463 59.4415 38.2273 59.4074 37.75H60.4983C60.5267 38.0795 60.6375 38.3523 60.8307 38.5682C61.0267 38.7812 61.2739 38.9403 61.5722 39.0455C61.8733 39.1477 62.1972 39.1989 62.5438 39.1989C62.9472 39.1989 63.3094 39.1335 63.6304 39.0028C63.9514 38.8693 64.2057 38.6847 64.3932 38.4489C64.5807 38.2102 64.6744 37.9318 64.6744 37.6136C64.6744 37.3239 64.5935 37.0881 64.4316 36.9062C64.2696 36.7244 64.0566 36.5767 63.7923 36.4631C63.5281 36.3494 63.2426 36.25 62.9358 36.1648L61.8619 35.858C61.1801 35.6619 60.6404 35.3821 60.2426 35.0185C59.8449 34.6548 59.646 34.179 59.646 33.5909C59.646 33.1023 59.7781 32.6761 60.0423 32.3125C60.3094 31.946 60.6673 31.6619 61.1162 31.4602C61.5679 31.2557 62.0722 31.1534 62.629 31.1534C63.1915 31.1534 63.6915 31.2543 64.129 31.456C64.5665 31.6548 64.9131 31.9276 65.1688 32.2741C65.4273 32.6207 65.5637 33.0142 65.5779 33.4545H64.5551ZM68.7813 40L66.787 33.4545H67.8438L69.2586 38.4659H69.3268L70.7245 33.4545H71.7984L73.1791 38.4489H73.2472L74.662 33.4545H75.7188L73.7245 40H72.7359L71.3041 34.9716H71.2018L69.77 40H68.7813ZM77.0484 40V33.4545H78.0541V40H77.0484ZM77.5597 32.3636C77.3637 32.3636 77.1947 32.2969 77.0526 32.1634C76.9134 32.0298 76.8438 31.8693 76.8438 31.6818C76.8438 31.4943 76.9134 31.3338 77.0526 31.2003C77.1947 31.0668 77.3637 31 77.5597 31C77.7558 31 77.9234 31.0668 78.0626 31.2003C78.2046 31.3338 78.2757 31.4943 78.2757 31.6818C78.2757 31.8693 78.2046 32.0298 78.0626 32.1634C77.9234 32.2969 77.7558 32.3636 77.5597 32.3636ZM82.8108 33.4545V34.3068H79.2824V33.4545H82.8108ZM80.3392 40V32.5511C80.3392 32.1761 80.4273 31.8636 80.6034 31.6136C80.7796 31.3636 81.0083 31.1761 81.2895 31.0511C81.5708 30.9261 81.8676 30.8636 82.1801 30.8636C82.4273 30.8636 82.629 30.8835 82.7852 30.9233C82.9415 30.9631 83.058 31 83.1347 31.0341L82.8449 31.9034C82.7938 31.8864 82.7227 31.8651 82.6318 31.8395C82.5438 31.8139 82.4273 31.8011 82.2824 31.8011C81.95 31.8011 81.71 31.8849 81.5622 32.0526C81.4173 32.2202 81.3449 32.4659 81.3449 32.7898V40H80.3392ZM87.0669 33.4545V34.3068H83.6748V33.4545H87.0669ZM84.6634 31.8864H85.6691V38.125C85.6691 38.4091 85.7103 38.6222 85.7927 38.7642C85.8779 38.9034 85.9859 38.9972 86.1166 39.0455C86.2501 39.0909 86.3907 39.1136 86.5384 39.1136C86.6492 39.1136 86.7401 39.108 86.8112 39.0966C86.8822 39.0824 86.939 39.071 86.9816 39.0625L87.1862 39.9659C87.118 39.9915 87.0228 40.017 86.9007 40.0426C86.7785 40.071 86.6237 40.0852 86.4362 40.0852C86.1521 40.0852 85.8737 40.0241 85.6009 39.902C85.3311 39.7798 85.1066 39.5938 84.9276 39.3438C84.7515 39.0938 84.6634 38.7784 84.6634 38.3977V31.8864ZM94.4262 40.1364C93.8808 40.1364 93.3992 39.9986 92.9816 39.723C92.564 39.4446 92.2373 39.0526 92.0015 38.5469C91.7657 38.0384 91.6478 37.4375 91.6478 36.7443C91.6478 36.0568 91.7657 35.4602 92.0015 34.9545C92.2373 34.4489 92.5654 34.0582 92.9859 33.7827C93.4063 33.5071 93.8921 33.3693 94.4433 33.3693C94.8694 33.3693 95.2061 33.4403 95.4532 33.5824C95.7032 33.7216 95.8936 33.8807 96.0242 34.0597C96.1578 34.2358 96.2615 34.3807 96.3353 34.4943H96.4205V31.2727H97.4262V40H96.4546V38.9943H96.3353C96.2615 39.1136 96.1563 39.2642 96.02 39.446C95.8836 39.625 95.689 39.7855 95.4362 39.9276C95.1833 40.0668 94.8467 40.1364 94.4262 40.1364ZM94.5626 39.233C94.966 39.233 95.3069 39.1278 95.5853 38.9176C95.8637 38.7045 96.0754 38.4105 96.2203 38.0355C96.3651 37.6577 96.4376 37.2216 96.4376 36.7273C96.4376 36.2386 96.3666 35.8111 96.2245 35.4446C96.0825 35.0753 95.8722 34.7884 95.5938 34.5838C95.3154 34.3764 94.9717 34.2727 94.5626 34.2727C94.1365 34.2727 93.7813 34.3821 93.4972 34.6009C93.216 34.8168 93.0044 35.1108 92.8623 35.483C92.7231 35.8523 92.6535 36.267 92.6535 36.7273C92.6535 37.1932 92.7245 37.6165 92.8666 37.9972C93.0115 38.375 93.2245 38.6761 93.5058 38.9006C93.7899 39.1222 94.1421 39.233 94.5626 39.233ZM102.152 40.1364C101.521 40.1364 100.977 39.9972 100.52 39.7188C100.065 39.4375 99.7146 39.0455 99.4674 38.5426C99.2231 38.0369 99.1009 37.4489 99.1009 36.7784C99.1009 36.108 99.2231 35.517 99.4674 35.0057C99.7146 34.4915 100.058 34.0909 100.499 33.804C100.942 33.5142 101.459 33.3693 102.05 33.3693C102.391 33.3693 102.727 33.4261 103.06 33.5398C103.392 33.6534 103.695 33.8381 103.967 34.0938C104.24 34.3466 104.457 34.6818 104.619 35.0994C104.781 35.517 104.862 36.0312 104.862 36.642V37.0682H99.8169V36.1989H103.84C103.84 35.8295 103.766 35.5 103.618 35.2102C103.473 34.9205 103.266 34.6918 102.996 34.5241C102.729 34.3565 102.413 34.2727 102.05 34.2727C101.649 34.2727 101.303 34.3722 101.01 34.571C100.72 34.767 100.497 35.0227 100.341 35.3381C100.185 35.6534 100.107 35.9915 100.107 36.3523V36.9318C100.107 37.4261 100.192 37.8452 100.362 38.1889C100.536 38.5298 100.776 38.7898 101.082 38.9688C101.389 39.1449 101.746 39.233 102.152 39.233C102.416 39.233 102.655 39.196 102.868 39.1222C103.084 39.0455 103.27 38.9318 103.426 38.7812C103.582 38.6278 103.703 38.4375 103.788 38.2102L104.76 38.483C104.658 38.8125 104.486 39.1023 104.244 39.3523C104.003 39.5994 103.705 39.7926 103.35 39.9318C102.994 40.0682 102.595 40.1364 102.152 40.1364ZM107.398 31.2727V40H106.392V31.2727H107.398ZM109.24 40V33.4545H110.245V40H109.24ZM109.751 32.3636C109.555 32.3636 109.386 32.2969 109.244 32.1634C109.105 32.0298 109.035 31.8693 109.035 31.6818C109.035 31.4943 109.105 31.3338 109.244 31.2003C109.386 31.0668 109.555 31 109.751 31C109.947 31 110.115 31.0668 110.254 31.2003C110.396 31.3338 110.467 31.4943 110.467 31.6818C110.467 31.8693 110.396 32.0298 110.254 32.1634C110.115 32.2969 109.947 32.3636 109.751 32.3636ZM117.44 33.4545L115.019 40H113.997L111.576 33.4545H112.667L114.474 38.6705H114.542L116.349 33.4545H117.44ZM121.277 40.1364C120.646 40.1364 120.102 39.9972 119.645 39.7188C119.19 39.4375 118.84 39.0455 118.592 38.5426C118.348 38.0369 118.226 37.4489 118.226 36.7784C118.226 36.108 118.348 35.517 118.592 35.0057C118.84 34.4915 119.183 34.0909 119.624 33.804C120.067 33.5142 120.584 33.3693 121.175 33.3693C121.516 33.3693 121.852 33.4261 122.185 33.5398C122.517 33.6534 122.82 33.8381 123.092 34.0938C123.365 34.3466 123.582 34.6818 123.744 35.0994C123.906 35.517 123.987 36.0312 123.987 36.642V37.0682H118.942V36.1989H122.965C122.965 35.8295 122.891 35.5 122.743 35.2102C122.598 34.9205 122.391 34.6918 122.121 34.5241C121.854 34.3565 121.538 34.2727 121.175 34.2727C120.774 34.2727 120.428 34.3722 120.135 34.571C119.845 34.767 119.622 35.0227 119.466 35.3381C119.31 35.6534 119.232 35.9915 119.232 36.3523V36.9318C119.232 37.4261 119.317 37.8452 119.487 38.1889C119.661 38.5298 119.901 38.7898 120.207 38.9688C120.514 39.1449 120.871 39.233 121.277 39.233C121.541 39.233 121.78 39.196 121.993 39.1222C122.209 39.0455 122.395 38.9318 122.551 38.7812C122.707 38.6278 122.828 38.4375 122.913 38.2102L123.885 38.483C123.783 38.8125 123.611 39.1023 123.369 39.3523C123.128 39.5994 122.83 39.7926 122.475 39.9318C122.119 40.0682 121.72 40.1364 121.277 40.1364ZM125.517 40V33.4545H126.489V34.4432H126.557C126.676 34.1193 126.892 33.8565 127.205 33.6548C127.517 33.4531 127.869 33.3523 128.261 33.3523C128.335 33.3523 128.428 33.3537 128.538 33.3565C128.649 33.3594 128.733 33.3636 128.79 33.3693V34.392C128.756 34.3835 128.678 34.3707 128.555 34.3537C128.436 34.3338 128.31 34.3239 128.176 34.3239C127.858 34.3239 127.574 34.3906 127.324 34.5241C127.077 34.6548 126.881 34.8366 126.736 35.0696C126.594 35.2997 126.523 35.5625 126.523 35.858V40H125.517ZM130.829 42.4545C130.658 42.4545 130.506 42.4403 130.373 42.4119C130.239 42.3864 130.147 42.3608 130.096 42.3352L130.352 41.4489C130.596 41.5114 130.812 41.5341 130.999 41.517C131.187 41.5 131.353 41.4162 131.498 41.2656C131.646 41.1179 131.781 40.8778 131.903 40.5455L132.09 40.0341L129.67 33.4545H130.761L132.568 38.6705H132.636L134.443 33.4545H135.533L132.755 40.9545C132.63 41.2926 132.475 41.5724 132.291 41.794C132.106 42.0185 131.891 42.1847 131.647 42.2926C131.406 42.4006 131.133 42.4545 130.829 42.4545Z" fill="#F4F4F5"/>
</svg>
